<?xml version="1.0" encoding="UTF-8" standalone="no" ?>
<!DOCTYPE svg PUBLIC "-//W3C//DTD SVG 1.1//EN" "http://www.w3.org/Graphics/SVG/1.1/DTD/svg11.dtd">
<svg xmlns="http://www.w3.org/2000/svg" xmlns:xlink="http://www.w3.org/1999/xlink" version="1.1" width="640" height="640" viewBox="0 0 640 640" xml:space="preserve">
<desc>Created with Fabric.js 4.6.0</desc>
<defs>
</defs>
<g transform="matrix(1.15 0 0 1.15 383.11 436.41)" id="o2FMxJrmvkl1_d2sVCo-Z"  >
<path style="stroke: rgb(25,174,212); stroke-width: 0; stroke-dasharray: none; stroke-linecap: butt; stroke-dashoffset: 0; stroke-linejoin: miter; stroke-miterlimit: 4; fill: rgb(63,79,91); fill-rule: nonzero; opacity: 1;" vector-effect="non-scaling-stroke"  transform=" translate(0, 0)" d="M -37.71187 -33.55831 C -37.71187 -35.85226 -35.85226 -37.71187 -33.55831 -37.71187 L 34.143229999999996 -37.71187 L 34.143229999999996 -37.71187 C 36.114129999999996 -37.71187 37.71187 -36.11414 37.71187 -34.143229999999996 L 37.71187 33.654090000000004 L 37.71187 33.654090000000004 C 37.71187 35.895140000000005 35.89514 37.711870000000005 33.65409 37.711870000000005 L -33.40654000000001 37.711870000000005 L -33.40654000000001 37.711870000000005 C -35.78430000000001 37.711870000000005 -37.71186000000001 35.784310000000005 -37.71186000000001 33.40655 z" stroke-linecap="round" />
</g>
<g transform="matrix(1.52 0 0 0.85 261.58 360.4)" id="DOM-vAENH2yM7FQoP4zXJ"  >
<path style="stroke: rgb(255,255,255); stroke-width: 1; stroke-dasharray: none; stroke-linecap: butt; stroke-dashoffset: 0; stroke-linejoin: miter; stroke-miterlimit: 4; fill: none; fill-rule: nonzero; opacity: 1;" vector-effect="non-scaling-stroke"  transform=" translate(0, 0)" d="M -139.04762 -129.92845 C -139.04762 -134.96483 -136.76495 -139.04762 -133.94914 -139.04762 L -112.13274 -139.04762 L 133.27462000000003 -139.04762 L 133.27462000000003 -139.04762 C 136.46296000000004 -139.04762 139.04762000000002 -134.42468 139.04762000000002 -128.72199 L 139.04762000000002 132.82882 L 139.04762000000002 132.82882 C 139.04762000000002 136.26337 137.49096000000003 139.04762 135.57072000000002 139.04762 L -135.72363999999996 139.04762 L -135.72363999999996 139.04762 C -137.55941999999996 139.04762 -139.04761999999997 136.38582 -139.04761999999997 133.10233 z" stroke-linecap="round" />
</g>
<g transform="matrix(1.63 0 0 0.95 475.28 420.31)" id="W7ywkf0VwHyMdgbLd8VB-"  >
<path style="stroke: rgb(255,255,255); stroke-width: 1; stroke-dasharray: none; stroke-linecap: butt; stroke-dashoffset: 0; stroke-linejoin: miter; stroke-miterlimit: 4; fill: rgb(0,0,0); fill-rule: nonzero; opacity: 1;" vector-effect="non-scaling-stroke"  transform=" translate(0, 0)" d="M -93.39713 -81.05301 C -93.39713 -87.87048 -90.16676000000001 -93.39713 -86.1819 -93.39713 L 72.03992000000001 -93.39713 L 85.17244000000001 -93.39713 L 85.17244000000001 -93.39713 C 89.71481000000001 -93.39713 93.39713 -87.09726 93.39713 -79.32597 L 93.39713 80.72352 L 93.39713 80.72352 C 93.39713 87.72296 90.08054 93.39712999999999 85.98931 93.39712999999999 L -82.30394 93.39712999999999 L -82.30394 93.39712999999999 C -88.43054 93.39712999999999 -93.39713 84.90006999999999 -93.39713 74.41842 z" stroke-linecap="round" />
</g>
<g transform="matrix(1.7 0 0 0.48 383.11 368.54)" id="PGbQotYmqjgARlLe3jLdc"  >
<path style="stroke: rgb(25,174,212); stroke-width: 0; stroke-dasharray: none; stroke-linecap: butt; stroke-dashoffset: 0; stroke-linejoin: miter; stroke-miterlimit: 4; fill: rgb(63,79,91); fill-rule: nonzero; opacity: 1;" vector-effect="non-scaling-stroke"  transform=" translate(0, 0)" d="M -25.42373 -16.64007 C -25.42373 -21.49115 -24.30773 -25.42373 -22.93107 -25.42373 L 23.098330000000004 -25.42373 L 23.098330000000004 -25.42373 C 24.382610000000003 -25.42373 25.423730000000006 -21.755029999999998 25.423730000000006 -17.22945 L 25.423730000000006 18.645829999999997 L 25.423730000000006 18.645829999999997 C 25.423730000000006 22.389169999999996 24.562570000000004 25.423739999999995 23.500270000000008 25.423739999999995 L -22.877089999999995 25.423739999999995 L -22.877089999999995 25.423739999999995 C -24.283559999999994 25.423739999999995 -25.423729999999995 21.405999999999995 -25.423729999999995 16.449869999999997 z" stroke-linecap="round" />
</g>
<g transform="matrix(1.15 0 0 1.15 475.16 349.12)" id="Cwj1bXS0_6Zof1pMtRvFb"  >
<path style="stroke: rgb(255,255,255); stroke-width: 1; stroke-dasharray: none; stroke-linecap: butt; stroke-dashoffset: 0; stroke-linejoin: miter; stroke-miterlimit: 4; fill: none; fill-rule: nonzero; opacity: 1;" vector-effect="non-scaling-stroke"  transform=" translate(0, 0)" d="M -132.66164 -0.48153 L 132.66164999999998 0.48151999999999995" stroke-linecap="round" />
</g>
<g transform="matrix(1.15 0 0 1.15 490.26 368.42)" id="UayLHgasiITR36rSLYIjI"  >
<path style="stroke: rgb(25,174,212); stroke-width: 0; stroke-dasharray: none; stroke-linecap: butt; stroke-dashoffset: 0; stroke-linejoin: miter; stroke-miterlimit: 4; fill: rgb(255,255,255); fill-rule: nonzero; opacity: 1;" vector-effect="non-scaling-stroke"  transform=" translate(0, 0)" d="M 0 -10.49724 C 5.79448 -10.49724 10.49724 -5.79448 10.49724 0 C 10.49724 5.79448 5.79448 10.49724 0 10.49724 C -5.79448 10.49724 -10.49724 5.79448 -10.49724 0 C -10.49724 -5.79448 -5.79448 -10.49724 0 -10.49724 z" stroke-linecap="round" />
</g>
<g transform="matrix(6.23 0 0 0.34 562.24 368.42)" id="p3XEm5k1J30hmWBUhtKvJ"  >
<path style="stroke: rgb(25,174,212); stroke-width: 0; stroke-dasharray: none; stroke-linecap: butt; stroke-dashoffset: 0; stroke-linejoin: miter; stroke-miterlimit: 4; fill: rgb(255,255,255); fill-rule: nonzero; opacity: 1;" vector-effect="non-scaling-stroke"  transform=" translate(0, 0)" d="M -7.45856 -1.03686 C -7.45856 -4.58347 -7.29971 -7.45856 -7.10377 -7.45856 L 7.043970000000001 -7.45856 L 7.043970000000001 -7.45856 C 7.272940000000001 -7.45856 7.45856 -4.09888 7.45856 0.04550999999999927 L 7.45856 0.1518199999999993 L 7.45856 0.1518199999999993 C 7.45856 4.187219999999999 7.27782 7.4585599999999985 7.05487 7.4585599999999985 L -7.08364 7.4585599999999985 L -7.08364 7.4585599999999985 C -7.2907 7.4585599999999985 -7.45856 4.420339999999999 -7.45856 0.6724999999999985 z" stroke-linecap="round" />
</g>
<g transform="matrix(1.09 0 0 0.4 566.41 403.37)" id="AeKrToOINx5i-ktBHxWht"  >
<path style="stroke: rgb(25,174,212); stroke-width: 0; stroke-dasharray: none; stroke-linecap: butt; stroke-dashoffset: 0; stroke-linejoin: miter; stroke-miterlimit: 4; fill: rgb(63,79,91); fill-rule: nonzero; opacity: 1;" vector-effect="non-scaling-stroke"  transform=" translate(0, 0)" d="M -25.42373 -14.88334 C -25.42373 -20.70464 -23.685119999999998 -25.42373 -21.54043 -25.42373 L 21.801000000000002 -25.42373 L 21.801000000000002 -25.42373 C 23.80178 -25.42373 25.423730000000003 -21.02129 25.423730000000003 -15.590599999999998 L 25.423730000000003 17.29024 L 25.423730000000003 17.29024 C 25.423730000000003 21.78224 24.082130000000003 25.42373 22.427180000000003 25.42373 L -21.456329999999998 25.42373 L -21.456329999999998 25.42373 C -23.64746 25.42373 -25.42373 20.602439999999998 -25.42373 14.65508 z" stroke-linecap="round" />
</g>
<g transform="matrix(0.81 0 0 0.3 498.84 401.82)" id="pCSkRHpdy4YwJ40wmSzj8"  >
<path style="stroke: rgb(25,174,212); stroke-width: 0; stroke-dasharray: none; stroke-linecap: butt; stroke-dashoffset: 0; stroke-linejoin: miter; stroke-miterlimit: 4; fill: rgb(18,147,174); fill-rule: nonzero; opacity: 1;" vector-effect="non-scaling-stroke"  transform=" translate(0, 0)" d="M -25.42373 1.67937 C -25.42373 -13.289259999999999 -20.98012 -25.423730000000003 -15.49865 -25.423730000000003 L 16.17275 -25.423730000000003 L 16.17275 -25.423730000000003 C 21.28192 -25.423730000000003 25.42373 -14.113420000000003 25.42373 -0.1614500000000021 L 25.42373 0.8409899999999979 L 25.42373 0.8409899999999979 C 25.42373 14.417659999999998 21.39334 25.42373 16.421599999999998 25.42373 L -17.545100000000005 25.42373 L -17.545100000000005 25.42373 C -21.896340000000006 25.42373 -25.423720000000003 15.791269999999999 -25.423720000000003 3.909019999999998 z" stroke-linecap="round" />
</g>
<g transform="matrix(2.1 0 0 0.91 539.81 451.7)" id="SGjXFb-SMLNs7Qf-RR2Zw"  >
<path style="stroke: rgb(25,174,212); stroke-width: 0; stroke-dasharray: none; stroke-linecap: butt; stroke-dashoffset: 0; stroke-linejoin: miter; stroke-miterlimit: 4; fill: rgb(63,79,91); fill-rule: nonzero; opacity: 1;" vector-effect="non-scaling-stroke"  transform=" translate(0, 0)" d="M -30.7377 -20.55098 C -30.7377 -26.176949999999998 -28.76885 -30.73771 -26.34015 -30.73771 L 26.61327 -30.73771 L 26.61327 -30.73771 C 28.89113 -30.73771 30.73771 -26.4602 30.73771 -21.18363 L 30.73771 22.01074 L 30.73771 22.01074 C 30.73771 26.830509999999997 29.051 30.737699999999997 26.97033 30.737699999999997 L -27.070469999999997 30.737699999999997 L -27.070469999999997 30.737699999999997 C -29.095829999999996 30.737699999999997 -30.737699999999997 26.934369999999998 -30.737699999999997 22.24272 z" stroke-linecap="round" />
</g>
<g transform="matrix(1.41 0 0 1.41 383.11 436.41)" id="m16vwBSBQleVxHxPBhJuE"  >
<path style="stroke: rgb(25,174,212); stroke-width: 0; stroke-dasharray: none; stroke-linecap: butt; stroke-dashoffset: 0; stroke-linejoin: miter; stroke-miterlimit: 4; fill: rgb(63,79,91); fill-rule: nonzero; opacity: 1;" vector-effect="non-scaling-stroke"  transform=" translate(0, 0)" d="M -30.7377 -26.98827 C -30.7377 -29.05902 -29.05902 -30.7377 -26.98827 -30.7377 L 26.907629999999997 -30.7377 L 26.907629999999997 -30.7377 C 29.02292 -30.7377 30.737699999999997 -29.02292 30.737699999999997 -26.90763 L 30.737699999999997 27.347109999999997 L 30.737699999999997 27.347109999999997 C 30.737699999999997 29.219679999999997 29.219679999999997 30.737709999999996 27.347099999999998 30.737709999999996 L -27.427750000000003 30.737709999999996 L -27.427750000000003 30.737709999999996 C -29.255790000000005 30.737709999999996 -30.737700000000004 29.255789999999998 -30.737700000000004 27.427759999999996 z" stroke-linecap="round" />
</g>
<g transform="matrix(0.94 0 0 0.94 611.57 341.09)" id="OhxFLB7JRBYwoPGfiGPQD"  >
<path style="stroke: rgb(25,174,212); stroke-width: 0; stroke-dasharray: none; stroke-linecap: butt; stroke-dashoffset: 0; stroke-linejoin: miter; stroke-miterlimit: 4; fill: rgb(87,173,30); fill-rule: nonzero; opacity: 1;" vector-effect="non-scaling-stroke"  transform=" translate(0, 0)" d="M 0 -3.05555 C 1.68666 -3.05555 3.05555 -1.6866600000000003 3.05555 0 C 3.05555 1.68666 1.6866600000000003 3.05555 0 3.05555 C -1.68666 3.05555 -3.05555 1.6866600000000003 -3.05555 0 C -3.05555 -1.68666 -1.6866600000000003 -3.05555 0 -3.05555 z" stroke-linecap="round" />
</g>
<g transform="matrix(0.99 0 0 1 261.81 267.26)" id="2lSB3kIrbxEYVRqKidB52"  >
<path style="stroke: rgb(255,255,255); stroke-width: 1; stroke-dasharray: none; stroke-linecap: butt; stroke-dashoffset: 0; stroke-linejoin: miter; stroke-miterlimit: 4; fill: rgb(255,255,255); fill-opacity: 0; fill-rule: nonzero; opacity: 1;" vector-effect="non-scaling-stroke"  transform=" translate(0, 0)" d="M -212.56818 0 L 212.56816999999998 0" stroke-linecap="round" />
</g>
<g transform="matrix(0.94 0 0 0.94 591.27 341.09)" id="0-bu-5tzLGhkhadso-_Yz"  >
<path style="stroke: rgb(25,174,212); stroke-width: 0; stroke-dasharray: none; stroke-linecap: butt; stroke-dashoffset: 0; stroke-linejoin: miter; stroke-miterlimit: 4; fill: rgb(201,70,70); fill-rule: nonzero; opacity: 1;" vector-effect="non-scaling-stroke"  transform=" translate(0, 0)" d="M 0 -3.05555 C 1.68666 -3.05555 3.05555 -1.6866600000000003 3.05555 0 C 3.05555 1.68666 1.6866600000000003 3.05555 0 3.05555 C -1.68666 3.05555 -3.05555 1.6866600000000003 -3.05555 0 C -3.05555 -1.68666 -1.6866600000000003 -3.05555 0 -3.05555 z" stroke-linecap="round" />
</g>
<g transform="matrix(0.94 0 0 0.94 601.58 341.09)" id="tL3bzqJd0owDz64gbfYbi"  >
<path style="stroke: rgb(25,174,212); stroke-width: 0; stroke-dasharray: none; stroke-linecap: butt; stroke-dashoffset: 0; stroke-linejoin: miter; stroke-miterlimit: 4; fill: rgb(252,134,29); fill-rule: nonzero; opacity: 1;" vector-effect="non-scaling-stroke"  transform=" translate(0, 0)" d="M 0 -3.05555 C 1.68666 -3.05555 3.05555 -1.6866600000000003 3.05555 0 C 3.05555 1.68666 1.6866600000000003 3.05555 0 3.05555 C -1.68666 3.05555 -3.05555 1.6866600000000003 -3.05555 0 C -3.05555 -1.68666 -1.6866600000000003 -3.05555 0 -3.05555 z" stroke-linecap="round" />
</g>
<g transform="matrix(1 0 0 1 418.42 254.87)" id="ts-F2KfNtSOMACrqhd60P"  >
<path style="stroke: rgb(0,0,0); stroke-width: 0; stroke-dasharray: none; stroke-linecap: butt; stroke-dashoffset: 0; stroke-linejoin: miter; stroke-miterlimit: 4; fill: rgb(201,70,70); fill-rule: nonzero; opacity: 1;" vector-effect="non-scaling-stroke"  transform=" translate(-3.24, -3.24)" d="M 3.23944 0 C 5.02761 0 6.47888 1.45127 6.47888 3.23944 C 6.47888 5.02761 5.02761 6.47888 3.23944 6.47888 C 1.45127 6.47888 0 5.02761 0 3.23944 C 0 1.45127 1.45127 0 3.23944 0 z" stroke-linecap="round" />
</g>
<g transform="matrix(1 0 0 1 58.33 279.77)" id="ykySVPOnaLyp9HHNReTiV"  >
<path style="stroke: rgb(0,0,0); stroke-width: 0; stroke-dasharray: none; stroke-linecap: butt; stroke-dashoffset: 0; stroke-linejoin: miter; stroke-miterlimit: 4; fill: rgb(255,255,255); fill-rule: nonzero; opacity: 1;" vector-effect="non-scaling-stroke"  transform=" translate(-3.24, -3.24)" d="M 3.23944 0 C 5.02761 0 6.47888 1.45127 6.47888 3.23944 C 6.47888 5.02761 5.02761 6.47888 3.23944 6.47888 C 1.45127 6.47888 0 5.02761 0 3.23944 C 0 1.45127 1.45127 0 3.23944 0 z" stroke-linecap="round" />
</g>
<g transform="matrix(1 0 0 1 58.33 299.97)" id="bxf6xMoo235X72aloNHAt"  >
<path style="stroke: rgb(0,0,0); stroke-width: 0; stroke-dasharray: none; stroke-linecap: butt; stroke-dashoffset: 0; stroke-linejoin: miter; stroke-miterlimit: 4; fill: rgb(255,255,255); fill-rule: nonzero; opacity: 1;" vector-effect="non-scaling-stroke"  transform=" translate(-3.24, -3.24)" d="M 3.23944 0 C 5.02761 0 6.47888 1.45127 6.47888 3.23944 C 6.47888 5.02761 5.02761 6.47888 3.23944 6.47888 C 1.45127 6.47888 0 5.02761 0 3.23944 C 0 1.45127 1.45127 0 3.23944 0 z" stroke-linecap="round" />
</g>
<g transform="matrix(1 0 0 1 58.33 316.76)" id="PrYNPiGiArle9Q4z444gV"  >
<path style="stroke: rgb(0,0,0); stroke-width: 0; stroke-dasharray: none; stroke-linecap: butt; stroke-dashoffset: 0; stroke-linejoin: miter; stroke-miterlimit: 4; fill: rgb(255,255,255); fill-rule: nonzero; opacity: 1;" vector-effect="non-scaling-stroke"  transform=" translate(-3.24, -3.24)" d="M 3.23944 0 C 5.02761 0 6.47888 1.45127 6.47888 3.23944 C 6.47888 5.02761 5.02761 6.47888 3.23944 6.47888 C 1.45127 6.47888 0 5.02761 0 3.23944 C 0 1.45127 1.45127 0 3.23944 0 z" stroke-linecap="round" />
</g>
<g transform="matrix(1 0 0 1 58.33 339.17)" id="I-oyVQMvUs6Rb0xoQOp7P"  >
<path style="stroke: rgb(0,0,0); stroke-width: 0; stroke-dasharray: none; stroke-linecap: butt; stroke-dashoffset: 0; stroke-linejoin: miter; stroke-miterlimit: 4; fill: rgb(255,255,255); fill-rule: nonzero; opacity: 1;" vector-effect="non-scaling-stroke"  transform=" translate(-3.24, -3.24)" d="M 3.23944 0 C 5.02761 0 6.47888 1.45127 6.47888 3.23944 C 6.47888 5.02761 5.02761 6.47888 3.23944 6.47888 C 1.45127 6.47888 0 5.02761 0 3.23944 C 0 1.45127 1.45127 0 3.23944 0 z" stroke-linecap="round" />
</g>
<g transform="matrix(1 0 0 1 58.33 403.46)" id="ANP0auPR0ov3PUhWUw7bc"  >
<path style="stroke: rgb(0,0,0); stroke-width: 0; stroke-dasharray: none; stroke-linecap: butt; stroke-dashoffset: 0; stroke-linejoin: miter; stroke-miterlimit: 4; fill: rgb(255,255,255); fill-rule: nonzero; opacity: 1;" vector-effect="non-scaling-stroke"  transform=" translate(-3.24, -3.24)" d="M 3.23944 0 C 5.02761 0 6.47888 1.45127 6.47888 3.23944 C 6.47888 5.02761 5.02761 6.47888 3.23944 6.47888 C 1.45127 6.47888 0 5.02761 0 3.23944 C 0 1.45127 1.45127 0 3.23944 0 z" stroke-linecap="round" />
</g>
<g transform="matrix(1 0 0 1 58.33 359.4)" id="XN-VT_iHwsEmZNwMHpnM2"  >
<path style="stroke: rgb(0,0,0); stroke-width: 0; stroke-dasharray: none; stroke-linecap: butt; stroke-dashoffset: 0; stroke-linejoin: miter; stroke-miterlimit: 4; fill: rgb(255,255,255); fill-rule: nonzero; opacity: 1;" vector-effect="non-scaling-stroke"  transform=" translate(-3.24, -3.24)" d="M 3.23944 0 C 5.02761 0 6.47888 1.45127 6.47888 3.23944 C 6.47888 5.02761 5.02761 6.47888 3.23944 6.47888 C 1.45127 6.47888 0 5.02761 0 3.23944 C 0 1.45127 1.45127 0 3.23944 0 z" stroke-linecap="round" />
</g>
<g transform="matrix(1 0 0 1 58.33 383.23)" id="deF4cz7waEC1WNSJMSc0m"  >
<path style="stroke: rgb(0,0,0); stroke-width: 0; stroke-dasharray: none; stroke-linecap: butt; stroke-dashoffset: 0; stroke-linejoin: miter; stroke-miterlimit: 4; fill: rgb(255,255,255); fill-rule: nonzero; opacity: 1;" vector-effect="non-scaling-stroke"  transform=" translate(-3.24, -3.24)" d="M 3.23944 0 C 5.02761 0 6.47888 1.45127 6.47888 3.23944 C 6.47888 5.02761 5.02761 6.47888 3.23944 6.47888 C 1.45127 6.47888 0 5.02761 0 3.23944 C 0 1.45127 1.45127 0 3.23944 0 z" stroke-linecap="round" />
</g>
<g transform="matrix(1 0 0 1 58.33 421.55)" id="eTHb3f_TBAMW2138dsbTG"  >
<path style="stroke: rgb(0,0,0); stroke-width: 0; stroke-dasharray: none; stroke-linecap: butt; stroke-dashoffset: 0; stroke-linejoin: miter; stroke-miterlimit: 4; fill: rgb(255,255,255); fill-rule: nonzero; opacity: 1;" vector-effect="non-scaling-stroke"  transform=" translate(-3.24, -3.24)" d="M 3.23944 0 C 5.02761 0 6.47888 1.45127 6.47888 3.23944 C 6.47888 5.02761 5.02761 6.47888 3.23944 6.47888 C 1.45127 6.47888 0 5.02761 0 3.23944 C 0 1.45127 1.45127 0 3.23944 0 z" stroke-linecap="round" />
</g>
<g transform="matrix(1 0 0 1 58.33 438.96)" id="7NYub3eDZ8sG5YEw-4UGc"  >
<path style="stroke: rgb(0,0,0); stroke-width: 0; stroke-dasharray: none; stroke-linecap: butt; stroke-dashoffset: 0; stroke-linejoin: miter; stroke-miterlimit: 4; fill: rgb(255,255,255); fill-rule: nonzero; opacity: 1;" vector-effect="non-scaling-stroke"  transform=" translate(-3.24, -3.24)" d="M 3.23944 0 C 5.02761 0 6.47888 1.45127 6.47888 3.23944 C 6.47888 5.02761 5.02761 6.47888 3.23944 6.47888 C 1.45127 6.47888 0 5.02761 0 3.23944 C 0 1.45127 1.45127 0 3.23944 0 z" stroke-linecap="round" />
</g>
<g transform="matrix(5.43 0 0 0.3 121.87 296.73)" id="g0yySLHGm_3hllIvpjeso"  >
<path style="stroke: rgb(25,174,212); stroke-width: 0; stroke-dasharray: none; stroke-linecap: butt; stroke-dashoffset: 0; stroke-linejoin: miter; stroke-miterlimit: 4; fill: rgb(255,255,255); fill-rule: nonzero; opacity: 1;" vector-effect="non-scaling-stroke"  transform=" translate(0, 0)" d="M -7.45856 -0.99076 C -7.45856 -4.56283 -7.29961 -7.45856 -7.10353 -7.45856 L 7.0437 -7.45856 L 7.0437 -7.45856 C 7.27282 -7.45856 7.45856 -4.07476 7.45856 0.09936999999999951 L 7.45856 0.09936999999999951 L 7.45856 0.09936999999999951 C 7.45856 4.16374 7.2777 7.458559999999999 7.05461 7.458559999999999 L -7.08339 7.458559999999999 L -7.08339 7.458559999999999 C -7.29059 7.458559999999999 -7.458559999999999 4.398529999999999 -7.458559999999999 0.6237899999999996 z" stroke-linecap="round" />
</g>
<g transform="matrix(16.03 0 0 0.3 201 309.04)" id="5-tjdattL7PuwfkSSG7sx"  >
<path style="stroke: rgb(25,174,212); stroke-width: 0; stroke-dasharray: none; stroke-linecap: butt; stroke-dashoffset: 0; stroke-linejoin: miter; stroke-miterlimit: 4; fill: rgb(255,255,255); fill-rule: nonzero; opacity: 1;" vector-effect="non-scaling-stroke"  transform=" translate(0, 0)" d="M -7.45856 -1.03686 C -7.45856 -4.58347 -7.4047600000000005 -7.45856 -7.3384 -7.45856 L 7.31814 -7.45856 L 7.31814 -7.45856 C 7.395689999999999 -7.45856 7.45855 -4.09888 7.45855 0.04550999999999927 L 7.45855 0.1518199999999993 L 7.45855 0.1518199999999993 C 7.45855 4.187219999999999 7.39734 7.4585599999999985 7.321829999999999 7.4585599999999985 L -7.331590000000001 7.4585599999999985 L -7.331590000000001 7.4585599999999985 C -7.401720000000001 7.4585599999999985 -7.458570000000001 4.420339999999999 -7.458570000000001 0.6724999999999985 z" stroke-linecap="round" />
</g>
<g transform="matrix(7.66 0 0 0.3 138.47 320)" id="L-FTCl0NMRJXhZtRmHdNK"  >
<path style="stroke: rgb(25,174,212); stroke-width: 0; stroke-dasharray: none; stroke-linecap: butt; stroke-dashoffset: 0; stroke-linejoin: miter; stroke-miterlimit: 4; fill: rgb(255,255,255); fill-rule: nonzero; opacity: 1;" vector-effect="non-scaling-stroke"  transform=" translate(0, 0)" d="M -7.45856 -1.03686 C -7.45856 -4.58347 -7.34591 -7.45856 -7.20695 -7.45856 L 7.164549999999999 -7.45856 L 7.164549999999999 -7.45856 C 7.326929999999999 -7.45856 7.458559999999999 -4.09888 7.458559999999999 0.04550999999999927 L 7.458559999999999 0.1518199999999993 L 7.458559999999999 0.1518199999999993 C 7.458559999999999 4.187219999999999 7.3303899999999995 7.4585599999999985 7.17228 7.4585599999999985 L -7.19268 7.4585599999999985 L -7.19268 7.4585599999999985 C -7.33952 7.4585599999999985 -7.45856 4.420339999999999 -7.45856 0.6724999999999985 z" stroke-linecap="round" />
</g>
<g transform="matrix(3.39 0 0 0.3 106.12 332.25)" id="rbcwE74ff_fcu97UmWZ_C"  >
<path style="stroke: rgb(25,174,212); stroke-width: 0; stroke-dasharray: none; stroke-linecap: butt; stroke-dashoffset: 0; stroke-linejoin: miter; stroke-miterlimit: 4; fill: rgb(255,255,255); fill-rule: nonzero; opacity: 1;" vector-effect="non-scaling-stroke"  transform=" translate(0, 0)" d="M -7.45856 -1.03686 C -7.45856 -4.58347 -7.20378 -7.45856 -6.88949 -7.45856 L 6.79358 -7.45856 L 6.79358 -7.45856 C 7.16084 -7.45856 7.45856 -4.09888 7.45856 0.04550999999999927 L 7.45856 0.1518199999999993 L 7.45856 0.1518199999999993 C 7.45856 4.187219999999999 7.1686700000000005 7.4585599999999985 6.81106 7.4585599999999985 L -6.857209999999999 7.4585599999999985 L -6.857209999999999 7.4585599999999985 C -7.189329999999999 7.4585599999999985 -7.458569999999999 4.420339999999999 -7.458569999999999 0.6724999999999985 z" stroke-linecap="round" />
</g>
<g transform="matrix(5.43 0 0 0.3 121.37 362.64)" id="EOsjuayC8_YpMmOqYz8W1"  >
<path style="stroke: rgb(25,174,212); stroke-width: 0; stroke-dasharray: none; stroke-linecap: butt; stroke-dashoffset: 0; stroke-linejoin: miter; stroke-miterlimit: 4; fill: rgb(255,255,255); fill-rule: nonzero; opacity: 1;" vector-effect="non-scaling-stroke"  transform=" translate(0, 0)" d="M -7.45856 -0.99076 C -7.45856 -4.56283 -7.29961 -7.45856 -7.10353 -7.45856 L 7.0437 -7.45856 L 7.0437 -7.45856 C 7.27282 -7.45856 7.45856 -4.07476 7.45856 0.09936999999999951 L 7.45856 0.09936999999999951 L 7.45856 0.09936999999999951 C 7.45856 4.16374 7.2777 7.458559999999999 7.05461 7.458559999999999 L -7.08339 7.458559999999999 L -7.08339 7.458559999999999 C -7.29059 7.458559999999999 -7.458559999999999 4.398529999999999 -7.458559999999999 0.6237899999999996 z" stroke-linecap="round" />
</g>
<g transform="matrix(10.45 0 0 0.3 159.34 342.41)" id="7EL9xUWiQ4g8E1l4Yv8F7"  >
<path style="stroke: rgb(25,174,212); stroke-width: 0; stroke-dasharray: none; stroke-linecap: butt; stroke-dashoffset: 0; stroke-linejoin: miter; stroke-miterlimit: 4; fill: rgb(255,255,255); fill-rule: nonzero; opacity: 1;" vector-effect="non-scaling-stroke"  transform=" translate(0, 0)" d="M -7.45856 -1.03686 C -7.45856 -4.58347 -7.37605 -7.45856 -7.2742700000000005 -7.45856 L 7.24322 -7.45856 L 7.24322 -7.45856 C 7.36215 -7.45856 7.45857 -4.09888 7.45857 0.04550999999999927 L 7.45857 0.1518199999999993 L 7.45857 0.1518199999999993 C 7.45857 4.187219999999999 7.3646899999999995 7.4585599999999985 7.24888 7.4585599999999985 L -7.263809999999999 7.4585599999999985 L -7.263809999999999 7.4585599999999985 C -7.371359999999999 7.4585599999999985 -7.45855 4.420339999999999 -7.45855 0.6724999999999985 z" stroke-linecap="round" />
</g>
<g transform="matrix(10.45 0 0 0.3 158.81 351.36)" id="0to6wSf3awASmRvmmG9_t"  >
<path style="stroke: rgb(25,174,212); stroke-width: 0; stroke-dasharray: none; stroke-linecap: butt; stroke-dashoffset: 0; stroke-linejoin: miter; stroke-miterlimit: 4; fill: rgb(255,255,255); fill-rule: nonzero; opacity: 1;" vector-effect="non-scaling-stroke"  transform=" translate(0, 0)" d="M -7.45856 -1.03686 C -7.45856 -4.58347 -7.37605 -7.45856 -7.2742700000000005 -7.45856 L 7.24322 -7.45856 L 7.24322 -7.45856 C 7.36215 -7.45856 7.45857 -4.09888 7.45857 0.04550999999999927 L 7.45857 0.1518199999999993 L 7.45857 0.1518199999999993 C 7.45857 4.187219999999999 7.3646899999999995 7.4585599999999985 7.24888 7.4585599999999985 L -7.263809999999999 7.4585599999999985 L -7.263809999999999 7.4585599999999985 C -7.371359999999999 7.4585599999999985 -7.45855 4.420339999999999 -7.45855 0.6724999999999985 z" stroke-linecap="round" />
</g>
<g transform="matrix(10.45 0 0 0.3 158.81 438.96)" id="Il8d4GGyo_lc7BCXGncQW"  >
<path style="stroke: rgb(25,174,212); stroke-width: 0; stroke-dasharray: none; stroke-linecap: butt; stroke-dashoffset: 0; stroke-linejoin: miter; stroke-miterlimit: 4; fill: rgb(255,255,255); fill-rule: nonzero; opacity: 1;" vector-effect="non-scaling-stroke"  transform=" translate(0, 0)" d="M -7.45856 -1.03686 C -7.45856 -4.58347 -7.37605 -7.45856 -7.2742700000000005 -7.45856 L 7.24322 -7.45856 L 7.24322 -7.45856 C 7.36215 -7.45856 7.45857 -4.09888 7.45857 0.04550999999999927 L 7.45857 0.1518199999999993 L 7.45857 0.1518199999999993 C 7.45857 4.187219999999999 7.3646899999999995 7.4585599999999985 7.24888 7.4585599999999985 L -7.263809999999999 7.4585599999999985 L -7.263809999999999 7.4585599999999985 C -7.371359999999999 7.4585599999999985 -7.45855 4.420339999999999 -7.45855 0.6724999999999985 z" stroke-linecap="round" />
</g>
<g transform="matrix(15.02 0 0 0.3 193.45 373.93)" id="4HAfRC-WkqMwASJNWYzve"  >
<path style="stroke: rgb(25,174,212); stroke-width: 0; stroke-dasharray: none; stroke-linecap: butt; stroke-dashoffset: 0; stroke-linejoin: miter; stroke-miterlimit: 4; fill: rgb(255,255,255); fill-rule: nonzero; opacity: 1;" vector-effect="non-scaling-stroke"  transform=" translate(0, 0)" d="M -7.45856 -1.03686 C -7.45856 -2.74 -7.44505 -4.3733900000000006 -7.420990000000001 -5.57769 C -7.396940000000001 -6.7819899999999995 -7.364310000000001 -7.458559999999999 -7.3303 -7.458559999999999 L 7.3086899999999995 -7.458559999999999 L 7.3086899999999995 -7.458559999999999 C 7.348439999999999 -7.458559999999999 7.386559999999999 -6.667959999999999 7.414669999999999 -5.260669999999999 C 7.442779999999999 -3.8533799999999996 7.458569999999999 -1.9446999999999992 7.458569999999999 0.04551000000000105 L 7.458569999999999 0.15182000000000107 L 7.458569999999999 0.15182000000000107 C 7.458569999999999 4.187220000000001 7.393229999999999 7.45856 7.312639999999999 7.45856 L -7.323010000000001 7.45856 L -7.323010000000001 7.45856 C -7.3978600000000005 7.45856 -7.458550000000001 4.42034 -7.458550000000001 0.6725000000000003 z" stroke-linecap="round" />
</g>
<g transform="matrix(7.91 0 0 0.3 139.89 386.47)" id="8bwPMX6KGtULxbKhrAtFj"  >
<path style="stroke: rgb(25,174,212); stroke-width: 0; stroke-dasharray: none; stroke-linecap: butt; stroke-dashoffset: 0; stroke-linejoin: miter; stroke-miterlimit: 4; fill: rgb(255,255,255); fill-rule: nonzero; opacity: 1;" vector-effect="non-scaling-stroke"  transform=" translate(0, 0)" d="M -7.45856 -1.03686 C -7.45856 -4.58347 -7.34956 -7.45856 -7.2151000000000005 -7.45856 L 7.1740699999999995 -7.45856 L 7.1740699999999995 -7.45856 C 7.331189999999999 -7.45856 7.458559999999999 -4.09888 7.458559999999999 0.04550999999999927 L 7.458559999999999 0.1518199999999993 L 7.458559999999999 0.1518199999999993 C 7.458559999999999 4.187219999999999 7.33454 7.4585599999999985 7.18155 7.4585599999999985 L -7.20129 7.4585599999999985 L -7.20129 7.4585599999999985 C -7.34338 7.4585599999999985 -7.45856 4.420339999999999 -7.45856 0.6724999999999985 z" stroke-linecap="round" />
</g>
<g transform="matrix(6.75 0 0 0.3 131.18 397.99)" id="SLUKws0GwOa8cIjminQS7"  >
<path style="stroke: rgb(25,174,212); stroke-width: 0; stroke-dasharray: none; stroke-linecap: butt; stroke-dashoffset: 0; stroke-linejoin: miter; stroke-miterlimit: 4; fill: rgb(255,255,255); fill-rule: nonzero; opacity: 1;" vector-effect="non-scaling-stroke"  transform=" translate(0, 0)" d="M -7.45856 -1.03686 C -7.45856 -4.58347 -7.3307 -7.45856 -7.17297 -7.45856 L 7.12484 -7.45856 L 7.12484 -7.45856 C 7.30915 -7.45856 7.45856 -4.09888 7.45856 0.04550999999999927 L 7.45856 0.1518199999999993 L 7.45856 0.1518199999999993 C 7.45856 4.187219999999999 7.31308 7.4585599999999985 7.13361 7.4585599999999985 L -7.156770000000001 7.4585599999999985 L -7.156770000000001 7.4585599999999985 C -7.323440000000001 7.4585599999999985 -7.45856 4.420339999999999 -7.45856 0.6724999999999985 z" stroke-linecap="round" />
</g>
<g transform="matrix(8.58 0 0 0.3 144.88 410.01)" id="TQytaPIcupsiUEi3Vp2EQ"  >
<path style="stroke: rgb(25,174,212); stroke-width: 0; stroke-dasharray: none; stroke-linecap: butt; stroke-dashoffset: 0; stroke-linejoin: miter; stroke-miterlimit: 4; fill: rgb(255,255,255); fill-rule: nonzero; opacity: 1;" vector-effect="non-scaling-stroke"  transform=" translate(0, 0)" d="M -7.45856 -1.03686 C -7.45856 -4.58347 -7.35806 -7.45856 -7.2340800000000005 -7.45856 L 7.196259999999999 -7.45856 L 7.196259999999999 -7.45856 C 7.341129999999999 -7.45856 7.458569999999999 -4.09888 7.458569999999999 0.04550999999999927 L 7.458569999999999 0.1518199999999993 L 7.458569999999999 0.1518199999999993 C 7.458569999999999 4.187219999999999 7.344219999999999 7.4585599999999985 7.203159999999999 7.4585599999999985 L -7.221340000000001 7.4585599999999985 L -7.221340000000001 7.4585599999999985 C -7.352350000000001 7.4585599999999985 -7.458550000000002 4.420339999999999 -7.458550000000002 0.6724999999999985 z" stroke-linecap="round" />
</g>
<g transform="matrix(1.86 0 0 0.3 94.75 422.55)" id="jHFYy5mEElAeMRNXAca2N"  >
<path style="stroke: rgb(25,174,212); stroke-width: 0; stroke-dasharray: none; stroke-linecap: butt; stroke-dashoffset: 0; stroke-linejoin: miter; stroke-miterlimit: 4; fill: rgb(255,255,255); fill-rule: nonzero; opacity: 1;" vector-effect="non-scaling-stroke"  transform=" translate(0, 0)" d="M -7.45856 -1.03686 C -7.45856 -4.58347 -6.99511 -7.45856 -6.42342 -7.45856 L 6.248950000000001 -7.45856 L 6.248950000000001 -7.45856 C 6.917000000000001 -7.45856 7.45856 -4.09888 7.45856 0.04550999999999927 L 7.45856 0.1518199999999993 L 7.45856 0.1518199999999993 C 7.45856 4.187219999999999 6.931240000000001 7.4585599999999985 6.280760000000001 7.4585599999999985 L -6.3646899999999995 7.4585599999999985 L -6.3646899999999995 7.4585599999999985 C -6.968819999999999 7.4585599999999985 -7.458559999999999 4.420339999999999 -7.458559999999999 0.6724999999999985 z" stroke-linecap="round" />
</g>
<g transform="matrix(1 0 0 1 436.31 254.87)" id="5zaqzNf3x7Hd8EvgujnAW"  >
<path style="stroke: rgb(0,0,0); stroke-width: 0; stroke-dasharray: none; stroke-linecap: butt; stroke-dashoffset: 0; stroke-linejoin: miter; stroke-miterlimit: 4; fill: rgb(252,134,29); fill-rule: nonzero; opacity: 1;" vector-effect="non-scaling-stroke"  transform=" translate(-3.24, -3.24)" d="M 3.23944 0 C 5.02761 0 6.47888 1.45127 6.47888 3.23944 C 6.47888 5.02761 5.02761 6.47888 3.23944 6.47888 C 1.45127 6.47888 0 5.02761 0 3.23944 C 0 1.45127 1.45127 0 3.23944 0 z" stroke-linecap="round" />
</g>
<g transform="matrix(1 0 0 1 455.04 254.87)" id="lBS5GduMV9BusahSIYARq"  >
<path style="stroke: rgb(0,0,0); stroke-width: 0; stroke-dasharray: none; stroke-linecap: butt; stroke-dashoffset: 0; stroke-linejoin: miter; stroke-miterlimit: 4; fill: rgb(87,173,30); fill-rule: nonzero; opacity: 1;" vector-effect="non-scaling-stroke"  transform=" translate(-3.24, -3.24)" d="M 3.23944 0 C 5.02761 0 6.47888 1.45127 6.47888 3.23944 C 6.47888 5.02761 5.02761 6.47888 3.23944 6.47888 C 1.45127 6.47888 0 5.02761 0 3.23944 C 0 1.45127 1.45127 0 3.23944 0 z" stroke-linecap="round" />
</g>
</svg>