<?xml version="1.0" encoding="UTF-8" standalone="no" ?>
<!DOCTYPE svg PUBLIC "-//W3C//DTD SVG 1.1//EN" "http://www.w3.org/Graphics/SVG/1.1/DTD/svg11.dtd">
<svg xmlns="http://www.w3.org/2000/svg" xmlns:xlink="http://www.w3.org/1999/xlink" version="1.1" width="640" height="640" viewBox="0 0 640 640" xml:space="preserve">
<desc>Created with Fabric.js 4.6.0</desc>
<defs>
</defs>
<g transform="matrix(0.79 0 0 0.79 161.59 265.43)" id="LdBxLMEPJsbA0utOS82KQ"  >
<linearGradient id="SVGID_285_0_0" gradientUnits="userSpaceOnUse" gradientTransform="matrix(1 0 0 1 -115.85 -115.85)"  x1="0" y1="115.8532661775785" x2="231.70653235515684" y2="115.8532661775785">
<stop offset="0%" style="stop-color:#ffffff;stop-opacity: 1"/>
<stop offset="55.066079442077346%" style="stop-color:#1BC7C7;stop-opacity: 1"/>
<stop offset="100%" style="stop-color:#17A5C3;stop-opacity: 1"/>
</linearGradient>
<path style="stroke: rgb(126,95,100); stroke-width: 0; stroke-dasharray: none; stroke-linecap: butt; stroke-dashoffset: 0; stroke-linejoin: miter; stroke-miterlimit: 4; fill: url(#SVGID_285_0_0); fill-rule: nonzero; opacity: 1;" vector-effect="non-scaling-stroke"  transform=" translate(0, 0)" d="M 0 -115.85327 C 63.951 -115.85327 115.85327 -63.95101 115.85327 0 C 115.85327 63.951 63.95101 115.85327 0 115.85327 C -63.951 115.85327 -115.85327 63.95101 -115.85327 0 C -115.85327 -63.951 -63.95101 -115.85327 0 -115.85327 z" stroke-linecap="round" />
</g>
<g transform="matrix(0.06 0 0 0.06 81.78 577.28)" id="uUTHqHiwyv0cJGcHSJxvu"  >
<linearGradient id="SVGID_381_1" gradientUnits="userSpaceOnUse" gradientTransform="matrix(1 0 0 1 -115.85 -115.85)"  x1="0" y1="115.8532661775785" x2="231.70653235515684" y2="115.8532661775785">
<stop offset="0%" style="stop-color:#ffffff;stop-opacity: 1"/>
<stop offset="55.066079442077346%" style="stop-color:#1BC7C7;stop-opacity: 1"/>
<stop offset="100%" style="stop-color:#17A5C3;stop-opacity: 1"/>
</linearGradient>
<path style="stroke: rgb(126,95,100); stroke-width: 0; stroke-dasharray: none; stroke-linecap: butt; stroke-dashoffset: 0; stroke-linejoin: miter; stroke-miterlimit: 4; fill: url(#SVGID_381_1); fill-rule: nonzero; opacity: 1;" vector-effect="non-scaling-stroke"  transform=" translate(0, 0)" d="M 0 -115.85327 C 63.951 -115.85327 115.85327 -63.95101 115.85327 0 C 115.85327 63.951 63.95101 115.85327 0 115.85327 C -63.951 115.85327 -115.85327 63.95101 -115.85327 0 C -115.85327 -63.951 -63.95101 -115.85327 0 -115.85327 z" stroke-linecap="round" />
</g>
<g transform="matrix(0.1 0 0 0.1 81.78 432.84)" id="y5DuG4O1Pj8QWi8CnSq0Q"  >
<linearGradient id="SVGID_383_2" gradientUnits="userSpaceOnUse" gradientTransform="matrix(1 0 0 1 -115.85 -115.85)"  x1="0" y1="115.8532661775785" x2="231.70653235515684" y2="115.8532661775785">
<stop offset="0%" style="stop-color:#ffffff;stop-opacity: 1"/>
<stop offset="55.066079442077346%" style="stop-color:#1BC7C7;stop-opacity: 1"/>
<stop offset="100%" style="stop-color:#17A5C3;stop-opacity: 1"/>
</linearGradient>
<path style="stroke: rgb(126,95,100); stroke-width: 0; stroke-dasharray: none; stroke-linecap: butt; stroke-dashoffset: 0; stroke-linejoin: miter; stroke-miterlimit: 4; fill: url(#SVGID_383_2); fill-rule: nonzero; opacity: 1;" vector-effect="non-scaling-stroke"  transform=" translate(0, 0)" d="M 0 -115.85327 C 63.951 -115.85327 115.85327 -63.95101 115.85327 0 C 115.85327 63.951 63.95101 115.85327 0 115.85327 C -63.951 115.85327 -115.85327 63.95101 -115.85327 0 C -115.85327 -63.951 -63.95101 -115.85327 0 -115.85327 z" stroke-linecap="round" />
</g>
<g transform="matrix(0.15 0 0 0.15 285.3 610.85)" id="Z3_Zltu7d-hXQYFvEqM79"  >
<linearGradient id="SVGID_372_3" gradientUnits="userSpaceOnUse" gradientTransform="matrix(1 0 0 1 -115.85 -115.85)"  x1="0" y1="115.8532661775785" x2="231.70653235515684" y2="115.8532661775785">
<stop offset="0%" style="stop-color:#ffffff;stop-opacity: 1"/>
<stop offset="55.066079442077346%" style="stop-color:#1BC7C7;stop-opacity: 1"/>
<stop offset="100%" style="stop-color:#17A5C3;stop-opacity: 1"/>
</linearGradient>
<path style="stroke: rgb(126,95,100); stroke-width: 0; stroke-dasharray: none; stroke-linecap: butt; stroke-dashoffset: 0; stroke-linejoin: miter; stroke-miterlimit: 4; fill: url(#SVGID_372_3); fill-rule: nonzero; opacity: 1;" vector-effect="non-scaling-stroke"  transform=" translate(0, 0)" d="M 0 -115.85327 C 63.951 -115.85327 115.85327 -63.95101 115.85327 0 C 115.85327 63.951 63.95101 115.85327 0 115.85327 C -63.951 115.85327 -115.85327 63.95101 -115.85327 0 C -115.85327 -63.951 -63.95101 -115.85327 0 -115.85327 z" stroke-linecap="round" />
</g>
<g transform="matrix(0.15 0 0 0.15 177.94 584.75)" id="K-Hn2uctV4tIPRHtJuYQ8"  >
<linearGradient id="SVGID_373_4" gradientUnits="userSpaceOnUse" gradientTransform="matrix(1 0 0 1 -115.85 -115.85)"  x1="0" y1="115.8532661775785" x2="231.70653235515684" y2="115.8532661775785">
<stop offset="0%" style="stop-color:#ffffff;stop-opacity: 1"/>
<stop offset="55.066079442077346%" style="stop-color:#1BC7C7;stop-opacity: 1"/>
<stop offset="100%" style="stop-color:#17A5C3;stop-opacity: 1"/>
</linearGradient>
<path style="stroke: rgb(126,95,100); stroke-width: 0; stroke-dasharray: none; stroke-linecap: butt; stroke-dashoffset: 0; stroke-linejoin: miter; stroke-miterlimit: 4; fill: url(#SVGID_373_4); fill-rule: nonzero; opacity: 1;" vector-effect="non-scaling-stroke"  transform=" translate(0, 0)" d="M 0 -115.85327 C 63.951 -115.85327 115.85327 -63.95101 115.85327 0 C 115.85327 63.951 63.95101 115.85327 0 115.85327 C -63.951 115.85327 -115.85327 63.95101 -115.85327 0 C -115.85327 -63.951 -63.95101 -115.85327 0 -115.85327 z" stroke-linecap="round" />
</g>
<g transform="matrix(0.08 0 0 0.08 161.03 465.13)" id="qUJsZ3goo-WFT0JTNwg9F"  >
<linearGradient id="SVGID_374_5" gradientUnits="userSpaceOnUse" gradientTransform="matrix(1 0 0 1 -115.85 -115.85)"  x1="0" y1="115.8532661775785" x2="231.70653235515684" y2="115.8532661775785">
<stop offset="0%" style="stop-color:#ffffff;stop-opacity: 1"/>
<stop offset="55.066079442077346%" style="stop-color:#1BC7C7;stop-opacity: 1"/>
<stop offset="100%" style="stop-color:#17A5C3;stop-opacity: 1"/>
</linearGradient>
<path style="stroke: rgb(126,95,100); stroke-width: 0; stroke-dasharray: none; stroke-linecap: butt; stroke-dashoffset: 0; stroke-linejoin: miter; stroke-miterlimit: 4; fill: url(#SVGID_374_5); fill-rule: nonzero; opacity: 1;" vector-effect="non-scaling-stroke"  transform=" translate(0, 0)" d="M 0 -115.85327 C 63.951 -115.85327 115.85327 -63.95101 115.85327 0 C 115.85327 63.951 63.95101 115.85327 0 115.85327 C -63.951 115.85327 -115.85327 63.95101 -115.85327 0 C -115.85327 -63.951 -63.95101 -115.85327 0 -115.85327 z" stroke-linecap="round" />
</g>
<g transform="matrix(1 0 0 1 346.59 530.26)" id="9BjFZ-iDcYi0TugbHeCrW"  >
<linearGradient id="SVGID_370_6" gradientUnits="userSpaceOnUse" gradientTransform="matrix(1 0 0 1 -292.95 -109.23)"  x1="0" y1="109.22624499999999" x2="585.9011100000001" y2="109.22624499999999">
<stop offset="0%" style="stop-color:#29B9DF;stop-opacity: 1"/>
<stop offset="50%" style="stop-color:#179EA3;stop-opacity: 1"/>
<stop offset="100%" style="stop-color:#A3FAF7;stop-opacity: 1"/>
</linearGradient>
<path style="stroke: rgb(26,247,206); stroke-width: 0; stroke-dasharray: none; stroke-linecap: butt; stroke-dashoffset: 0; stroke-linejoin: miter; stroke-miterlimit: 4; fill: url(#SVGID_370_6); fill-rule: nonzero; opacity: 1;" vector-effect="non-scaling-stroke"  transform=" translate(0, 0)" d="M 292.95056 -62.04986 L 292.95053 -62.04986 L 292.95053 -23.261990000000004 L 292.95055 -23.261990000000004 L 292.95056 23.691759999999995 L 292.95054 23.691759999999995 L 292.95054 66.56257 L 292.95054 66.56257 L 292.95054 109.22623999999999 L -13.444770000000005 109.22623999999999 C -25.750190000000003 109.22623999999999 -35.7257 99.25072999999999 -35.7257 86.94530999999999 L -35.7257 86.70759 C -35.7257 73.21246 -24.78573 62.27249 -11.290600000000005 62.27249 L 98.74806999999998 62.27249 C 93.21030999999998 58.2189 89.61388999999998 51.670269999999995 89.61388999999998 44.281639999999996 L 89.61388999999998 44.04391999999999 C 89.61388999999998 35.55143999999999 93.94631999999999 28.070849999999993 100.52155999999998 23.69175999999999 L -270.66962 23.69175999999999 C -282.97504000000004 23.69175999999999 -292.95055 13.716249999999992 -292.95055 1.41082999999999 L -292.95055 1.17310999999999 C -292.95055 -12.322020000000009 -282.01058 -23.261990000000008 -268.51545000000004 -23.261990000000008 L -26.303780000000046 -23.261990000000008 C -32.00439000000004 -27.297480000000007 -35.72571000000005 -33.94415000000001 -35.72571000000005 -41.45998000000001 L -35.72571000000005 -41.69770000000001 C -35.72571000000005 -50.19018000000001 -31.39329000000005 -57.670760000000016 -24.81806000000005 -62.04985000000001 L -100.92816000000005 -62.04985000000001 C -113.23358000000005 -62.04985000000001 -123.20909000000005 -72.02536 -123.20909000000005 -84.33078000000002 L -123.20909000000005 -84.79115000000002 C -123.20909000000005 -98.28628000000002 -112.26912000000004 -109.22625000000002 -98.77399000000005 -109.22625000000002 L 292.95053999999993 -109.22625000000002 z" stroke-linecap="round" />
</g>
<g transform="matrix(1.42 0 0 0.83 470.56 265.43)" id="ZaKIGx5KgAu4lUBckypNt"  >
<path style="stroke: rgb(255,255,255); stroke-width: 1; stroke-dasharray: none; stroke-linecap: butt; stroke-dashoffset: 0; stroke-linejoin: miter; stroke-miterlimit: 4; fill: none; fill-rule: nonzero; opacity: 1;" vector-effect="non-scaling-stroke"  transform=" translate(0, 0)" d="M -93.39713 -80.98273 C -93.39713 -87.83901 -90.16813 -93.39713 -86.18495 -93.39713 L 72.03992000000001 -93.39713 L 85.17592 -93.39713 L 85.17592 -93.39713 C 89.71637000000001 -93.39713 93.39713 -87.06139 93.39713 -79.24586000000001 L 93.39713 80.65136 L 93.39713 80.65136 C 93.39713 87.69064999999999 90.08194 93.39713 85.99245 93.39713 L -82.30862 93.39713 L -82.30862 93.39713 C -88.43263 93.39713 -93.39712 84.85170000000001 -93.39712 74.31037 z" stroke-linecap="round" />
</g>
<g transform="matrix(1 0 0 1 470.54 203.02)" id="UQsDJg-mLvUIfQSn7o8So"  >
<path style="stroke: rgb(255,255,255); stroke-width: 1; stroke-dasharray: none; stroke-linecap: butt; stroke-dashoffset: 0; stroke-linejoin: miter; stroke-miterlimit: 4; fill: rgb(255,255,255); fill-opacity: 0; fill-rule: nonzero; opacity: 1;" vector-effect="non-scaling-stroke"  transform=" translate(0, 0)" d="M -132.66164 -0.48153 L 132.66164999999998 0.48151999999999995" stroke-linecap="round" />
</g>
<g transform="matrix(1 0 0 1 390.32 279.46)" id="BOfEcYhdDKwqWNOlRhYmv"  >
<path style="stroke: rgb(25,174,212); stroke-width: 0; stroke-dasharray: none; stroke-linecap: butt; stroke-dashoffset: 0; stroke-linejoin: miter; stroke-miterlimit: 4; fill: rgb(63,79,91); fill-rule: nonzero; opacity: 1;" vector-effect="non-scaling-stroke"  transform=" translate(0, 0)" d="M -37.71187 -33.55831 C -37.71187 -35.85226 -35.85226 -37.71187 -33.55831 -37.71187 L 34.143229999999996 -37.71187 L 34.143229999999996 -37.71187 C 36.114129999999996 -37.71187 37.71187 -36.11414 37.71187 -34.143229999999996 L 37.71187 33.654090000000004 L 37.71187 33.654090000000004 C 37.71187 35.895140000000005 35.89514 37.711870000000005 33.65409 37.711870000000005 L -33.40654000000001 37.711870000000005 L -33.40654000000001 37.711870000000005 C -35.78430000000001 37.711870000000005 -37.71186000000001 35.784310000000005 -37.71186000000001 33.40655 z" stroke-linecap="round" />
</g>
<g transform="matrix(1.48 0 0 0.42 390.32 220.3)" id="eyhq0ujBU5MIAtmuco16h"  >
<path style="stroke: rgb(25,174,212); stroke-width: 0; stroke-dasharray: none; stroke-linecap: butt; stroke-dashoffset: 0; stroke-linejoin: miter; stroke-miterlimit: 4; fill: rgb(63,79,91); fill-rule: nonzero; opacity: 1;" vector-effect="non-scaling-stroke"  transform=" translate(0, 0)" d="M -25.42373 -16.5698 C -25.42373 -21.459690000000002 -24.31024 -25.42373 -22.93667 -25.42373 L 23.10355 -25.42373 L 23.10355 -25.42373 C 24.38495 -25.42373 25.42373 -21.72568 25.42373 -17.163899999999998 L 25.42373 18.5916 L 25.42373 18.5916 C 25.42373 22.36488 24.5645 25.42373 23.50459 25.42373 L -22.882820000000002 25.42373 L -22.882820000000002 25.42373 C -24.286130000000004 25.42373 -25.423740000000002 21.373849999999997 -25.423740000000002 16.37807 z" stroke-linecap="round" />
</g>
<g transform="matrix(1 0 0 1 483.72 220.2)" id="yAmwNCiL4fiZftaVBmet_"  >
<path style="stroke: rgb(25,174,212); stroke-width: 0; stroke-dasharray: none; stroke-linecap: butt; stroke-dashoffset: 0; stroke-linejoin: miter; stroke-miterlimit: 4; fill: rgb(255,255,255); fill-rule: nonzero; opacity: 1;" vector-effect="non-scaling-stroke"  transform=" translate(-10.5, -10.5)" d="M 10.49724 0 C 16.291719999999998 0 20.99448 4.70276 20.99448 10.49724 C 20.99448 16.291719999999998 16.291719999999998 20.99448 10.49724 20.99448 C 4.70276 20.99448 0 16.291719999999998 0 10.49724 C 0 4.70276 4.70276 0 10.49724 0 z" stroke-linecap="round" />
</g>
<g transform="matrix(5.43 0 0 0.3 545.27 220.11)" id="bEQYTAWh2kbX3FWbwugdJ"  >
<path style="stroke: rgb(25,174,212); stroke-width: 0; stroke-dasharray: none; stroke-linecap: butt; stroke-dashoffset: 0; stroke-linejoin: miter; stroke-miterlimit: 4; fill: rgb(255,255,255); fill-rule: nonzero; opacity: 1;" vector-effect="non-scaling-stroke"  transform=" translate(0, 0)" d="M -7.45856 -0.99076 C -7.45856 -4.56283 -7.29961 -7.45856 -7.10353 -7.45856 L 7.0437 -7.45856 L 7.0437 -7.45856 C 7.27282 -7.45856 7.45856 -4.07476 7.45856 0.09936999999999951 L 7.45856 0.09936999999999951 L 7.45856 0.09936999999999951 C 7.45856 4.16374 7.2777 7.458559999999999 7.05461 7.458559999999999 L -7.08339 7.458559999999999 L -7.08339 7.458559999999999 C -7.29059 7.458559999999999 -7.458559999999999 4.398529999999999 -7.458559999999999 0.6237899999999996 z" stroke-linecap="round" />
</g>
<g transform="matrix(0.95 0 0 0.35 550.1 250.66)" id="QDtm1y7p9-o-ICfuDz1Rr"  >
<path style="stroke: rgb(25,174,212); stroke-width: 0; stroke-dasharray: none; stroke-linecap: butt; stroke-dashoffset: 0; stroke-linejoin: miter; stroke-miterlimit: 4; fill: rgb(63,79,91); fill-rule: nonzero; opacity: 1;" vector-effect="non-scaling-stroke"  transform=" translate(0, 0)" d="M -25.42373 -14.90275 C -25.42373 -20.71333 -23.686439999999997 -25.42373 -21.54338 -25.42373 L 21.80375 -25.42373 L 21.80375 -25.42373 C 23.80301 -25.42373 25.42373 -21.0294 25.42373 -15.608709999999999 L 25.42373 17.305220000000002 L 25.42373 17.305220000000002 C 25.42373 21.788950000000003 24.08315 25.423730000000003 22.42946 25.423730000000003 L -21.45935 25.423730000000003 L -21.45935 25.423730000000003 C -23.64882 25.423730000000003 -25.42373 20.611320000000003 -25.42373 14.674920000000002 z" stroke-linecap="round" />
</g>
<g transform="matrix(0.71 0 0 0.26 491.2 249.31)" id="zHLMzRZvY3DaMLF61-2a0"  >
<path style="stroke: rgb(25,174,212); stroke-width: 0; stroke-dasharray: none; stroke-linecap: butt; stroke-dashoffset: 0; stroke-linejoin: miter; stroke-miterlimit: 4; fill: rgb(18,147,174); fill-rule: nonzero; opacity: 1;" vector-effect="non-scaling-stroke"  transform=" translate(0, 0)" d="M -25.42373 1.6352 C -25.42373 -13.30903 -20.96042 -25.42373 -15.454649999999999 -25.42373 L 16.13174 -25.42373 L 16.13174 -25.42373 C 21.263560000000002 -25.42373 25.42373 -14.131849999999998 25.42373 -0.20261999999999958 L 25.42373 0.8810600000000004 L 25.42373 0.8810600000000004 C 25.42373 14.43561 21.37547 25.423740000000002 16.38169 25.423740000000002 L -17.51018 25.423740000000002 L -17.51018 25.423740000000002 C -21.880709999999997 25.423740000000002 -25.42373 15.806980000000003 -25.42373 3.9441000000000024 z" stroke-linecap="round" />
</g>
<g transform="matrix(1.83 0 0 0.79 526.91 292.79)" id="jtU9QCu4UKWl71XR78hCK"  >
<path style="stroke: rgb(25,174,212); stroke-width: 0; stroke-dasharray: none; stroke-linecap: butt; stroke-dashoffset: 0; stroke-linejoin: miter; stroke-miterlimit: 4; fill: rgb(63,79,91); fill-rule: nonzero; opacity: 1;" vector-effect="non-scaling-stroke"  transform=" translate(0, 0)" d="M -30.7377 -20.59416 C -30.7377 -26.196279999999998 -28.77243 -30.737699999999997 -26.34815 -30.737699999999997 L 26.62076 -30.737699999999997 L 26.62076 -30.737699999999997 C 28.89448 -30.737699999999997 30.7377 -26.478329999999996 30.7377 -21.224129999999995 L 30.7377 22.047740000000005 L 30.7377 22.047740000000005 C 30.7377 26.847070000000006 29.05406 30.737700000000004 26.97717 30.737700000000004 L -27.07714 30.737700000000004 L -27.07714 30.737700000000004 C -29.09881 30.737700000000004 -30.7377 26.950490000000002 -30.7377 22.278740000000006 z" stroke-linecap="round" />
</g>
<g transform="matrix(0.82 0 0 0.82 571.77 196.37)" id="L-sNfphpGgB-LIwN_MGmQ"  >
<path style="stroke: rgb(25,174,212); stroke-width: 0; stroke-dasharray: none; stroke-linecap: butt; stroke-dashoffset: 0; stroke-linejoin: miter; stroke-miterlimit: 4; fill: rgb(201,70,70); fill-rule: nonzero; opacity: 1;" vector-effect="non-scaling-stroke"  transform=" translate(0, 0)" d="M 0 -3.05555 C 1.68666 -3.05555 3.05555 -1.6866600000000003 3.05555 0 C 3.05555 1.68666 1.6866600000000003 3.05555 0 3.05555 C -1.68666 3.05555 -3.05555 1.6866600000000003 -3.05555 0 C -3.05555 -1.68666 -1.6866600000000003 -3.05555 0 -3.05555 z" stroke-linecap="round" />
</g>
<g transform="matrix(0.82 0 0 0.82 580.76 196.37)" id="sp2mvyYzHsa-xq7Y4DTm7"  >
<path style="stroke: rgb(25,174,212); stroke-width: 0; stroke-dasharray: none; stroke-linecap: butt; stroke-dashoffset: 0; stroke-linejoin: miter; stroke-miterlimit: 4; fill: rgb(252,134,29); fill-rule: nonzero; opacity: 1;" vector-effect="non-scaling-stroke"  transform=" translate(0, 0)" d="M 0 -3.05555 C 1.68666 -3.05555 3.05555 -1.6866600000000003 3.05555 0 C 3.05555 1.68666 1.6866600000000003 3.05555 0 3.05555 C -1.68666 3.05555 -3.05555 1.6866600000000003 -3.05555 0 C -3.05555 -1.68666 -1.6866600000000003 -3.05555 0 -3.05555 z" stroke-linecap="round" />
</g>
<g transform="matrix(0.82 0 0 0.82 589.47 196.37)" id="LhUhhFsQtUZgRHDbUCTUU"  >
<path style="stroke: rgb(25,174,212); stroke-width: 0; stroke-dasharray: none; stroke-linecap: butt; stroke-dashoffset: 0; stroke-linejoin: miter; stroke-miterlimit: 4; fill: rgb(87,173,30); fill-rule: nonzero; opacity: 1;" vector-effect="non-scaling-stroke"  transform=" translate(0, 0)" d="M 0 -3.05555 C 1.68666 -3.05555 3.05555 -1.6866600000000003 3.05555 0 C 3.05555 1.68666 1.6866600000000003 3.05555 0 3.05555 C -1.68666 3.05555 -3.05555 1.6866600000000003 -3.05555 0 C -3.05555 -1.68666 -1.6866600000000003 -3.05555 0 -3.05555 z" stroke-linecap="round" />
</g>
</svg>